PathFileType	4	(X/Y/Z)	Kaydara	
DataRate	CameraRate	NumFrames	NumMarkers	Units	OrigDataRate	OrigDataStartFrame	OrigNumFrames	
120.00	120.00	4	72	mm	120.00	98	261	
Frame#	Time	Hips			RightUpLeg			RightLeg			RightFoot			RightFoot_End			LeftUpLeg			LeftLeg			LeftFoot			LeftFoot_End			Spine			Spine1			Spine2			Spine3			Neck			Head			Head_End			RightShoulder			RightArm			RightForeArm			RightHand			RightHandThumb1			RightHandThumb2			RightHandThumb3			RightHandThumb3_End			RightInHandIndex			RightHandIndex1			RightHandIndex2			RightHandIndex3			RightHandIndex3_End			RightInHandMiddle			RightHandMiddle1			RightHandMiddle2			RightHandMiddle3			RightHandMiddle3_End			RightInHandRing			RightHandRing1			RightHandRing2			RightHandRing3			RightHandRing3_End			RightInHandPinky			RightHandPinky1			RightHandPinky2			RightHandPinky3			RightHandPinky3_End			LeftShoulder			LeftArm			LeftForeArm			LeftHand			LeftHandThumb1			LeftHandThumb2			LeftHandThumb3			LeftHandThumb3_End			LeftInHandIndex			LeftHandIndex1			LeftHandIndex2			LeftHandIndex3			LeftHandIndex3_End			LeftInHandMiddle			LeftHandMiddle1			LeftHandMiddle2			LeftHandMiddle3			LeftHandMiddle3_End			LeftInHandRing			LeftHandRing1			LeftHandRing2			LeftHandRing3			LeftHandRing3_End			LeftInHandPinky			LeftHandPinky1			LeftHandPinky2			LeftHandPinky3			LeftHandPinky3_End			
		X1	Y1	Z1	X2	Y2	Z2	X3	Y3	Z3	X4	Y4	Z4	X5	Y5	Z5	X6	Y6	Z6	X7	Y7	Z7	X8	Y8	Z8	X9	Y9	Z9	X10	Y10	Z10	X11	Y11	Z11	X12	Y12	Z12	X13	Y13	Z13	X14	Y14	Z14	X15	Y15	Z15	X16	Y16	Z16	X17	Y17	Z17	X18	Y18	Z18	X19	Y19	Z19	X20	Y20	Z20	X21	Y21	Z21	X22	Y22	Z22	X23	Y23	Z23	X24	Y24	Z24	X25	Y25	Z25	X26	Y26	Z26	X27	Y27	Z27	X28	Y28	Z28	X29	Y29	Z29	X30	Y30	Z30	X31	Y31	Z31	X32	Y32	Z32	X33	Y33	Z33	X34	Y34	Z34	X35	Y35	Z35	X36	Y36	Z36	X37	Y37	Z37	X38	Y38	Z38	X39	Y39	Z39	X40	Y40	Z40	X41	Y41	Z41	X42	Y42	Z42	X43	Y43	Z43	X44	Y44	Z44	X45	Y45	Z45	X46	Y46	Z46	X47	Y47	Z47	X48	Y48	Z48	X49	Y49	Z49	X50	Y50	Z50	X51	Y51	Z51	X52	Y52	Z52	X53	Y53	Z53	X54	Y54	Z54	X55	Y55	Z55	X56	Y56	Z56	X57	Y57	Z57	X58	Y58	Z58	X59	Y59	Z59	X60	Y60	Z60	X61	Y61	Z61	X62	Y62	Z62	X63	Y63	Z63	X64	Y64	Z64	X65	Y65	Z65	X66	Y66	Z66	X67	Y67	Z67	X68	Y68	Z68	X69	Y69	Z69	X70	Y70	Z70	X71	Y71	Z71	X72	Y72	Z72	

98	0.808	5081.203	893.81699	129.612	5171.643098475303	901.1427134285079	90.55460930456313	5055.990237836171	502.24118989691937	34.04348756867551	5043.16790304568	109.95228994386733	25.368753769036196	4925.97667929989	42.40078895704885	164.7018535915621	5003.588965957647	860.8099527965486	182.67141786896389	4900.414745836687	471.8154212013101	298.26804279704737	4783.632010628157	79.18046734283188	462.5205567226617	4637.304603380506	33.42168102642427	349.0758579735357	5020.551186458641	1012.5511902495141	77.87159434762772	4962.836235286108	1072.7087550771862	28.256884442830707	4899.17355183444	1129.1577247938683	-26.33036929385729	4833.954938796409	1173.2065062391187	-83.27796423703434	4762.543038327769	1221.5846088734186	-141.0678259793277	4688.128225250248	1258.65836578847	-185.6008958125559	4548.307764920171	1334.6250004297456	-198.33222795415736	4810.151837354328	1220.2330290462257	-137.51991817052516	4899.062637412446	1266.8024493462908	-208.5240201644546	5007.7019660424485	1057.83728085653	-299.2135686721565	5187.4747617598	970.1376408983903	-412.5155156265878	5194.730712242046	985.1075931153334	-433.4384297159117	5191.61669720631	987.6413157448259	-461.3567619165382	5191.301031761482	986.150415236776	-480.3528151473205	5192.623011194346	982.1226199855342	-495.80722744965334	5203.899893666815	975.1904780054305	-433.2631731305061	5227.813711881402	969.1961834600347	-465.46119083848555	5234.513713130573	962.9998114513558	-490.51261210667263	5229.857104291226	961.1529780435428	-505.4038733176865	5220.052114261311	960.977088231774	-517.2685229647012	5207.634694925076	966.4487412784703	-431.0544118433028	5232.982499448927	955.8742605109267	-461.2639153471421	5240.69635312941	947.9762454430199	-488.2074223705419	5235.271594415417	945.2027212348861	-505.98479154922825	5224.637111081041	944.7451383474565	-518.8752825828526	5209.7809061800035	960.4237590431289	-428.6489136047473	5234.705377643609	945.7111964710557	-453.5661522863398	5241.799265033068	937.6822864455002	-476.60161225697885	5236.763373056488	934.3989613703493	-493.51105545629565	5226.857487713258	933.6805820824329	-505.51847193909464	5210.633593407272	953.6683631338556	-425.1276988629983	5234.4229073918905	936.0010581207799	-445.7428228008038	5240.571833244974	927.8496966376945	-463.3804017357977	5237.125214986409	924.621782265971	-475.3231896930125	5228.48060981921	923.5059872388816	-485.73476269855973	4762.283419682689	1189.2012414000822	-106.8285643116271	4693.382971840093	1092.1094354896125	-59.4898687482425	4900.784045568321	1017.4590172707093	-187.1879133152154	5116.821560650287	975.2899206478814	-301.87382783795766	5130.221213223113	993.7275517080114	-315.7284009538867	5161.16135978526	1000.4432845810944	-311.52374442656395	5184.948973283297	1001.8476341137272	-308.07255844819514	5206.696698135904	1000.2188500450862	-304.74799106616047	5138.735215830779	984.0512738428298	-317.04107140190956	5183.779184050775	983.730643213268	-329.9797685036658	5219.122934258148	981.5681071772236	-328.7463591164787	5237.969755045346	981.8497263753965	-321.78226575752825	5251.460422937959	983.1796598450677	-311.83783047804786	5143.452300838645	975.0696144215638	-314.68148430186426	5189.937164663282	969.8992498324599	-326.0281180211188	5228.9855236291905	966.3530012539387	-324.3161275784212	5251.954465626771	966.1234091401849	-315.7385084997301	5266.827970273284	967.3018085989322	-304.77207457758504	5145.618491661067	968.7304903725706	-312.7873699459286	5189.108943105499	958.588833163436	-321.6136527997977	5223.562499775861	954.2933611761551	-319.72825718018555	5245.940301080869	953.4322217754334	-311.24563502490645	5260.030543002132	954.2370847253811	-300.8354519571706	5146.943928653401	961.4474857512778	-309.4172130996806	5187.607814819506	947.6496544190878	-315.78508847547073	5215.660883305182	942.3750060803194	-313.62263282910106	5232.2077665855195	940.8592412127326	-307.1196296860377	5244.8185898509855	941.0613679588766	-297.71619586973327
99	0.817	5081.203	893.81699	129.612	5171.49853640862	900.9422739108119	90.54364088350782	5055.573345151044	502.04400937477044	34.457574418840814	5043.565067634745	109.96256053808042	25.42899481826943	4926.504138212095	42.356685898745326	164.80621106978674	5003.679812676294	860.9889759235381	182.69576153604646	4900.560924734526	471.96006005474067	298.2344149191505	4783.815426312497	79.24069026993223	462.3262867074601	4637.406907869644	33.34386787421175	349.0191439434266	5020.81310876647	1012.6487042971299	77.79918933484825	4963.261525305426	1072.9324945296557	28.1414114510584	4899.7653894387195	1129.5316069474447	-26.493153351300997	4834.6987876063495	1173.7521139692035	-83.49590815242543	4763.450746758914	1222.3122899280681	-141.34855931237536	4689.212652072819	1259.5969118208088	-185.99617967722898	4549.456118116719	1335.6657332903494	-198.8835356723332	4811.009787087866	1220.833646886408	-137.79404221093745	4900.026681047705	1267.2736187593243	-208.91114625047595	5008.171007692253	1058.2075067533244	-299.7571032461454	5187.420772176122	970.0333617963191	-413.63554154368376	5194.6977206899755	984.9861617596657	-434.82818990078914	5191.510192069968	987.3579583284318	-462.94089880511973	5191.130386675262	985.7476087132137	-482.0501474972139	5192.3878208370215	981.6145157068918	-497.5799610367306	5203.827844480144	975.055638870906	-434.60290280864393	5227.642559402368	968.9373211318344	-467.03415206287116	5234.244631223036	962.5898644795026	-492.2228238044296	5229.529476444604	960.6286146321198	-507.1856206485121	5219.677604477452	960.3442029498547	-519.100176495019	5207.529508799592	966.2969601865103	-432.32453819159235	5232.762735482766	955.5923653449527	-462.7238870224198	5240.365640918286	947.5275729504804	-489.8071894846549	5234.868287572352	944.615090696965	-507.66607841679604	5224.181553590299	944.0383186306052	-520.6088496312939	5209.655027127612	960.2637627226275	-429.86406908411567	5234.4594065260435	945.4291845983313	-454.9041844960003	5241.452592278898	937.253153101119	-478.0509976477879	5236.344553154703	933.8348580071076	-495.03350058369625	5226.38853269243	933.0039689039888	-507.0874327767706	5210.485241388003	953.4978485253795	-426.2715121665258	5234.151157398488	935.7140848775546	-446.95595418777106	5240.213728648125	927.4426990153142	-464.66579286582345	5236.711720899992	924.1152661541017	-476.65369251278645	5228.021112565365	922.8991884687347	-487.1017638294672	4763.127667670083	1189.9356957157152	-107.07264481825929	4694.101515660562	1093.0002829845112	-59.60994361847616	4901.132852298326	1017.8984131173382	-187.3891997883828	5116.810018618261	975.1897584684724	-302.41816773374535	5130.277539975102	993.662926307139	-316.3891410891097	5161.24381948278	1000.4365350642723	-312.1986162206723	5185.036701844399	1001.8742111100674	-308.74728981575146	5206.777757947448	1000.2672399377417	-305.4140651863028	5138.752293318217	983.9607450300678	-317.68573281796466	5183.788255506441	983.646917235278	-330.7016356566863	5219.121764578991	981.5112689879513	-329.4737453816279	5237.970809162666	981.8269209732973	-322.48876186159094	5251.469112872914	983.1967043527223	-312.5106311498795	5143.434267509828	974.9609214222033	-315.29401722806443	5189.892332160679	969.7873605734451	-326.69859037550054	5228.924903798968	966.2680605647529	-324.9880724317404	5251.894315582171	966.0783806509304	-316.3830674630712	5266.775098670318	967.2998254125182	-305.3787023732403	5145.575818149609	968.6085214077351	-313.3756737636819	5189.020749834674	958.4516875462135	-322.2341348856763	5223.455874015215	954.1772682675556	-320.3452761528981	5245.83164735349	953.3533333852656	-311.833717021754	5259.927557217896	954.1980570299504	-301.3866749674021	5146.873392574169	961.3121390022163	-309.9718910958735	5187.4782188730305	947.4912397310433	-316.35005060307213	5215.509437432576	942.2297170011391	-314.1772729462238	5232.051411882816	940.7392843611715	-307.64951139058553	5244.665282595721	940.9756816034173	-298.211324634899
100	0.825	5081.203	893.81699	129.612	5171.332779145748	900.7354224654031	90.54019389582298	5055.158983896763	501.83452049183813	34.88917189061773	5043.961388998462	109.9794774343121	25.464641388187648	4927.046129641288	42.31090217299985	164.88569084714146	5003.79066179668	861.1736389647988	182.7117746493214	4900.703680631175	472.1157489062155	298.1879927377633	4783.975163604808	79.32865396124315	462.13116519936045	4637.500617148976	33.30196404543155	348.9402327109795	5021.081663568936	1012.7485735154556	77.72813182327302	4963.693750545513	1073.1585524764262	28.02827733051447	4900.363737482494	1129.9071645026404	-26.6522935893053	4835.447757784417	1174.2978691375665	-83.70823008190118	4764.361858034906	1223.0384655748317	-141.62122352178847	4690.297318419581	1260.5306811559271	-186.37745740422073	4550.604390327605	1336.7008253953315	-199.4067805986665	4811.863720487832	1221.4298274791297	-138.05690861909133	4900.9430368069425	1267.7389577451063	-209.26527009016772	5008.593802297953	1058.5869428899766	-300.21799150330776	5187.316160688667	969.962525718352	-414.61422424742045	5194.63101471085	984.9138516641285	-436.0462701884838	5191.39418152771	987.1445424360367	-464.3419566110239	5190.965460141007	985.4278298515355	-483.5590975919808	5192.169641586266	981.1991395583113	-499.162145718032	5203.716743248277	974.9655455467584	-435.7760666839125	5227.448419903575	968.7384783330288	-468.4184835986708	5233.969227554895	962.2545628513946	-493.73732620394304	5229.208983925766	960.1901491376947	-508.77136463459664	5219.323457266092	959.8079861717036	-520.7383538877193	5207.380524596379	966.1857399562433	-433.4364273346644	5232.512274146383	955.3636636413167	-464.0086037044799	5240.021744907123	947.147456848051	-491.2251571579971	5234.467710314928	944.10930608546	-509.16577771298523	5223.743041953466	943.4249904924108	-522.1638698464212	5209.481523787031	960.140933969268	-430.92736344245645	5234.174045608536	945.1925791751985	-456.08043083419716	5241.081088326948	936.8821871928333	-479.33412746017865	5235.915876733278	933.3414066710144	-496.39055020531276	5225.923004341054	932.4087992726929	-508.49416779166785	5210.284887485562	953.3605165143056	-427.2720130433135	5233.832052661659	935.4652422513263	-448.02169445214867	5239.818789953008	927.0830330710648	-465.8021835850447	5236.27176512921	923.664695809924	-477.83677510217615	5227.546603749369	922.3576118570838	-488.3247009544559	4763.984061280782	1190.6730430247826	-107.31320251716286	4694.866876641811	1093.917289950523	-59.748791943709016	4901.484997999102	1018.3725705184523	-187.5818218711003	5116.754801015187	975.1192624149135	-302.9336208360388	5130.2925972718385	993.6374050537133	-316.99222350748335	5161.276196324352	1000.459070097215	-312.8016907053399	5185.067236978085	1001.9223911434726	-309.34327891628925	5206.7948642106485	1000.3301078913277	-305.99808978872403	5138.725678940529	983.9090075857422	-318.27951595380125	5183.746343013707	983.60481546736	-331.35403700861394	5219.060024810532	981.4881779902233	-330.1239829885234	5237.904215378857	981.8280267706273	-323.11529429511444	5251.403542481602	983.226187353852	-313.10246113053915	5143.369935458957	974.888159888861	-315.8644611044959	5189.792679668952	969.7126217763091	-327.3135965836011	5228.798677553369	966.2112760581027	-325.59739406724646	5251.759863575323	966.0494501732297	-316.96219561629675	5266.640613879472	967.3012939651035	-305.9190836667131	5145.485228181792	968.5204861370875	-313.92853431796567	5188.875710282677	958.3481120169153	-322.8128428553282	5223.282680357918	954.0864953563986	-320.91555821775194	5245.647868137848	953.2879158117048	-312.3730309830191	5259.742491002004	954.160506149907	-301.8886840455305	5146.75298750244	961.2075926038771	-310.49962390421047	5187.289484856608	947.3616800085465	-316.8873662384691	5215.290607985585	942.1060367847352	-314.7023096941929	5231.8212087414495	940.6319840498846	-308.1492841802638	5244.4318376056035	940.8918489448218	-298.67651097720534
101	0.833	5081.203	893.81699	129.612	5171.144746900365	900.522797852447	90.54360635480108	5054.747706581393	501.61292878386297	35.33888223916525	5044.355008484248	110.00361081009497	25.477529382076344	4927.600811451296	42.262452523157584	164.94106073907903	5003.92291829292	861.3633229444035	182.71986687900767	4900.843615204117	472.28147881388395	298.12689406673064	4784.110242870295	79.44403841239452	461.9325981156087	4637.583738695136	33.29756829457493	348.8380096798631	5021.355520369378	1012.8506106343747	77.65953006638267	4964.130800777473	1073.386572100741	27.919315863795973	4900.9657248814765	1130.283862028905	-26.805228388218126	4836.19833885824	1174.8430907434595	-83.91173033874567	4765.272179216417	1223.7621859964222	-141.8819758403969	4691.377526209424	1261.458302787726	-186.7399000781859	4551.746796105379	1337.7267034835231	-199.8974050064717	4812.7091419295	1222.0209036162837	-138.30460979453204	4901.805868829548	1268.1978127600944	-209.5808360186407	5008.960981647026	1058.9717814274427	-300.5849604124986	5187.150637401657	969.9316681801397	-415.4326483898628	5194.520186662926	984.897329759369	-437.0691700366696	5191.258891857645	987.0106946213791	-465.53289997163813	5190.796985845688	985.2029551073313	-484.85052800878793	5191.95968656483	980.8904051880129	-500.52319931226816	5203.556352495381	974.9273342600309	-436.75997032375966	5227.221621140978	968.6093613601016	-469.5873189716316	5233.678519711598	962.0065749113903	-495.02668221794465	5228.8871383604355	959.8523823030035	-510.1302834944132	5218.981637119614	959.3851998389648	-522.1512312224768	5207.17767866833	966.1226967447001	-434.36852389192313	5232.221697037505	955.1985375921627	-465.09305676768884	5239.656020945772	946.8495679647867	-492.4336759768456	5234.06182482876	943.7016379863892	-510.4546482546667	5223.314038874976	942.9235835992246	-523.5100438420803	5209.250438446511	960.0631522526743	-431.8181506672054	5233.840000173668	945.0119374262242	-457.07193444560943	5240.676154242854	936.582865785768	-480.42591644834806	5235.469340863802	932.9346205059542	-497.55567574422616	5225.453375619086	931.91312984408	-509.7111970572858	5210.022699119859	953.2645557163305	-428.10973907824854	5233.456437772016	935.2653321627438	-448.9191837956853	5239.378448732706	926.7839106317626	-466.7672902842838	5235.797228392144	923.2851675928063	-478.84923675858323	5227.049393961648	921.8981840055461	-489.37960873105266	4764.849183348894	1191.4122525099754	-107.54689005528205	4695.6768365951475	1094.8599433692966	-59.90421084500199	4901.8382633963465	1018.880673268128	-187.75873418145508	5116.654780489262	975.0900374259934	-303.40205128754104	5130.264366094284	993.6612462128501	-317.52080596725216	5161.256370066026	1000.5211691901061	-313.3178499264395	5185.038468445194	1002.0025948844927	-309.84642840315104	5206.745983890306	1000.4181003580919	-306.4866642769819	5138.653492010337	983.9065298027539	-318.80496620924566	5183.6510094430905	983.6140551338939	-331.92026001690095	5218.935256018173	981.5086667396149	-330.6813310333785	5237.767679381694	981.8632535743466	-323.6470652983882	5251.261673877311	983.2788369945321	-313.5995319547417	5143.257679675502	974.8621982996917	-316.37486712891746	5189.636177642505	969.6853856302256	-327.8556441935084	5228.604827530784	966.1931818192342	-326.1275932396917	5251.5493081131945	966.0476338151494	-317.460499367178	5266.423003407192	967.3178105895146	-306.37891361967735	5145.345288288539	968.4775491365536	-314.4276290613639	5188.672185050536	958.2890485187786	-323.3315221862363	5223.04132749912	954.0322010698242	-321.42164534833205	5245.387600253593	953.2476235262759	-312.84714863838855	5259.4742623335505	954.1366467429059	-302.3260571990878	5146.581542816015	961.1454198780418	-310.9816812642425	5187.0404040704825	947.2725766246579	-317.37809741601836	5215.0032841475695	942.0158320775572	-315.17933471481246	5231.51624145621	940.5496129543956	-308.60123847264384	5244.117604744925	940.8226644565761	-299.0949066028762
